<?xml version="1.0" encoding="iso-8859-1"?>
<!-- Uploaded to: SVG Repo, www.svgrepo.com, Generator: SVG Repo Mixer Tools -->
<svg height="800px" width="800px" version="1.1" id="Layer_1" xmlns="http://www.w3.org/2000/svg" xmlns:xlink="http://www.w3.org/1999/xlink" 
	 viewBox="0 0 512 512" xml:space="preserve">
<path style="fill:#F98410;" d="M470.371,37.616v78.389H332.653c-12.91,0-23.384,10.448-23.384,23.37
	c0,12.909-10.474,23.375-23.384,23.375H98.794c-12.91,0-23.384,10.449-23.384,23.37v221.765H10.449V37.616H470.371z"/>
<path style="fill:#FFD41D;" d="M501.551,204.298v246.708c0,12.91-10.467,23.378-23.384,23.378H98.794
	c-12.91,0-23.384-10.468-23.384-23.378V186.122c0-12.921,10.473-23.37,23.384-23.37h187.091c12.91,0,23.384-10.468,23.384-23.375
	c0-12.922,10.474-23.37,23.384-23.37h145.515c12.917,0,23.384,10.448,23.384,23.37V204.298z"/>
<path d="M480.82,105.67V37.616c0-5.771-4.678-10.449-10.449-10.449H10.449C4.678,27.167,0,31.845,0,37.616v370.271
	c0,5.771,4.678,10.449,10.449,10.449h54.512v32.671c0,18.651,15.177,33.826,33.833,33.826h379.373
	C496.823,484.832,512,469.658,512,451.006v-311.63C512,121.621,498.239,107.028,480.82,105.67z M20.898,397.438V48.065h439.024
	v57.491h-127.27c-18.656,0-33.833,15.172-33.833,33.819c0,7.127-5.802,12.926-12.935,12.926H98.794
	c-18.656,0-33.833,15.172-33.833,33.819v211.316H20.898V397.438z M491.102,451.006c0,7.128-5.802,12.929-12.935,12.929H98.794
	c-7.132,0-12.935-5.799-12.935-12.929v-43.12V186.122c0-7.125,5.802-12.921,12.935-12.921h187.091c0.583,0,1.163-0.015,1.739-0.044
	c15.548-0.791,28.359-12.123,31.405-26.972c0.451-2.2,0.689-4.477,0.689-6.809c0-7.125,5.802-12.921,12.935-12.921h137.719h7.796
	c7.132,0,12.935,5.796,12.935,12.921V451.006z"/>
<path d="M267.693,217.225h-23.535c-5.771,0-10.449,4.678-10.449,10.449s4.678,10.449,10.449,10.449h23.535
	c5.771,0,10.449-4.678,10.449-10.449S273.464,217.225,267.693,217.225z"/>
<path d="M209.502,217.225h-87.319c-5.771,0-10.449,4.678-10.449,10.449s4.678,10.449,10.449,10.449h87.319
	c5.771,0,10.449-4.678,10.449-10.449S215.273,217.225,209.502,217.225z"/>
<path d="M267.693,261.372h-23.535c-5.771,0-10.449,4.678-10.449,10.449s4.678,10.449,10.449,10.449h23.535
	c5.771,0,10.449-4.678,10.449-10.449C278.142,266.05,273.464,261.372,267.693,261.372z"/>
<path d="M209.502,261.372h-87.319c-5.771,0-10.449,4.678-10.449,10.449s4.678,10.449,10.449,10.449h87.319
	c5.771,0,10.449-4.678,10.449-10.449C219.951,266.05,215.273,261.372,209.502,261.372z"/>
</svg>